<?xml version="1.0" encoding="UTF-8" standalone="no"?>
<!-- Created with Inkscape (http://www.inkscape.org/) -->

<svg
   width="120.49641mm"
   height="103.48429mm"
   viewBox="0 0 120.49641 103.48429"
   version="1.1"
   id="svg1"
   xmlns="http://www.w3.org/2000/svg"
   xmlns:svg="http://www.w3.org/2000/svg">
  <defs
     id="defs1" />
  <g
     id="layer1"
     transform="translate(-29.971622,34.008069)">
    <path
       style="fill:#000000;fill-opacity:1;stroke:#ffffff;stroke-width:0.1;stroke-linecap:square;paint-order:markers stroke fill"
       id="path25"
       d="m 105.04262,-16.649858 c -3.55086,4.30027 -6.621911,9.0215034 -9.195256,13.9685934 -0.697855,1.34159 -1.303725,2.72906005 -1.955595,4.09359 -0.36447,1.14763 -0.72895,2.29526 -1.09343,3.4429 -0.0232,0.0465 0.63407,0.37498 0.6573,0.32851 v 0 c 0.55912,-1.02377 1.11824,-2.04754 1.67736,-3.07131 1.876119,-3.62017 2.357136,-4.62967 4.416524,-8.25495 1.936727,-3.40933 4.032207,-6.7259984 5.959887,-10.1403914 0.026,-0.03301 -0.44084,-0.399949 -0.46679,-0.366942 z" />
    <path
       style="fill:#000000;fill-opacity:1;stroke:#000000;stroke-width:0.3;stroke-linecap:square;stroke-dasharray:none;stroke-opacity:1;paint-order:markers stroke fill"
       id="path33"
       d="m 102.45729,1.9104743 c 1.02119,-1.80675094 2.01933,-3.6314308 3.17204,-5.360151 0.78393,-1.17565 2.40277,-3.367279 3.22625,-4.495402 0.76463,-0.941414 1.96289,-2.4789043 2.86639,-3.3884963 0.26093,-0.262682 0.51971,-0.549112 0.85172,-0.712961 0.0801,-0.03954 0.17239,0.122137 0.16507,0.211183 -0.0203,0.246636 -0.17349,0.464175 -0.24022,0.70248 -0.15425,0.550862 -0.28151,1.10893 -0.42226,1.6633963 -0.55087,1.95933 -1.18485,3.93326 -1.4392,5.96215 -0.0418,0.33345 -0.18773,1.6474402 0.17595,2.0776102 0.15905,0.18814 0.44902,0.20285 0.67354,0.30427 0.26041,-0.15098 0.5503,-0.25985 0.78123,-0.4529201 0.99335,-0.83054 1.88432,-2.3981601 2.55923,-3.4763101 1.35237,-2.160376 1.08791,-1.753757 2.40732,-4.065751 1.25097,-2.2544863 2.48039,-4.5206313 3.52027,-6.8818603 0.70357,-1.597596 0.54577,-1.080804 0.76921,-2.446964 0.006,-0.0118 -0.16087,-0.09898 -0.16704,-0.08717 v 0 c -0.19653,0.234802 -0.42101,0.448802 -0.58961,0.704411 -0.51343,0.778391 -1.46738,2.70256 -1.83091,3.397573 -3.11127,5.9482333 0.62943,-1.264799 -2.51538,4.8131113 -1.01079,1.866724 -1.98649,3.75681 -3.10337,5.56349 -0.46529,0.75266 -0.83669,1.3542601 -1.40269,2.0130002 -0.12593,0.14655 -0.27698,0.26949 -0.41546,0.4042299 -0.17712,0.2551601 -0.24251,0.4324801 -0.2293,-0.41783 0.006,-0.40642 0.0717,-0.81092 0.14472,-1.2107701 0.36714,-2.01062 0.9835,-3.973053 1.43448,-5.964275 0.0988,-0.608246 0.29036,-1.2085533 0.29628,-1.8247363 0.005,-0.505881 -0.0231,-1.786579 -0.99791,-1.541305 -0.40118,0.100944 -0.72559,0.407511 -1.04236,0.673587 -1.16084,0.975091 -2.10132,2.2060493 -3.07232,3.3523763 -2.31598,3.219353 -4.56134,6.5181832 -6.027,10.228524 -0.0181,0.0319 0.43327,0.28742 0.45133,0.25551 z" />
    <path
       id="path69"
       style="fill:#000000;fill-opacity:1;stroke:#000000;stroke-width:0.4;stroke-linecap:square;stroke-dasharray:none;stroke-opacity:1;paint-order:markers stroke fill"
       d="M 96.386173 -16.545052 C 96.123786 -16.582501 95.799965 -16.457457 95.525243 -16.46237 C 94.846161 -15.880349 94.103388 -15.36488 93.487642 -14.716223 C 90.788254 -11.872571 88.997792 -8.9492427 87.087516 -5.4325522 C 86.067544 -3.554854 85.174102 -1.8013371 84.353832 -0.083007965 C 84.347236 -0.077257917 84.339781 -0.071198262 84.333162 -0.065437978 L 84.332645 -0.053035634 L 83.693924 1.3153563 C 83.696864 1.3130661 83.700289 1.3109284 83.703226 1.3086384 C 81.860523 5.338829 80.408463 9.2826861 78.869413 14.230847 C 77.488963 18.669086 76.472413 23.212142 75.273766 27.702893 C 72.803841 39.326068 70.755141 51.163452 70.944832 63.095565 C 70.977352 65.141218 71.312803 67.170745 71.496736 69.20837 C 71.493136 69.25264 72.119475 69.303273 72.123054 69.259013 C 72.090774 67.26471 71.961719 65.269962 72.025903 63.276432 C 72.4062 51.465073 74.28052 39.763651 76.757914 28.226892 C 77.891228 23.748677 78.853782 19.223964 80.158223 14.79257 C 81.971174 8.6336913 83.499833 4.4562388 85.765632 -0.4431927 C 86.72634 -1.3360898 87.633818 -2.2874105 88.576314 -3.2001304 C 91.372531 -6.2985229 94.125043 -9.547601 95.997566 -13.313208 C 96.327202 -13.976101 96.632016 -14.666748 96.777363 -15.392668 C 96.846803 -15.73948 96.892843 -16.213035 96.623884 -16.442733 C 96.554237 -16.502212 96.473635 -16.532569 96.386173 -16.545052 z M 96.314859 -16.455135 C 96.479508 -16.455672 96.533014 -16.259858 96.348449 -15.59989 C 95.94189 -14.146127 94.418883 -11.802929 93.702616 -10.755225 C 91.413996 -7.4075914 90.765067 -6.8476455 88.057482 -3.7261964 C 87.56922 -3.2387579 87.092442 -2.739358 86.611576 -2.2441164 C 87.021821 -3.0968397 87.454371 -3.9769909 87.917956 -4.9013185 C 89.986685 -9.0260941 92.189847 -12.992803 95.615677 -16.132158 C 95.874546 -16.257641 96.15021 -16.454598 96.314859 -16.455135 z " />
    <path
       id="path69-5"
       style="fill:#000000;fill-opacity:1;stroke:#000000;stroke-width:0.6;stroke-linecap:square;stroke-dasharray:none;stroke-opacity:1;paint-order:markers stroke fill"
       d="m 81.263579,-7.4928916 c -0.61752,0.06099 -1.183566,0.409861 -1.706356,0.744141 -2.25976,1.444938 -4.058495,3.892357 -4.879805,6.43578298 -0.25933,0.80310602 -0.275858,1.66495402 -0.413928,2.49752202 0.12247,0.649071 -0.01868,1.411237 0.367419,1.947168 0.09578,0.132952 0.202311,0.242154 0.313676,0.339514 -0.940182,0.962259 -1.903146,1.902947 -2.905249,2.801896 -2.216793,1.816607 -4.796642,4.3336746 -7.692554,5.0518876 -1.026763,0.254647 -2.019169,0.202722 -2.45308,-0.971 -0.237617,-0.642752 -0.117934,-1.3657126 -0.176733,-2.0484536 0.188553,-0.989125 0.308533,-1.99376 0.565856,-2.967261 1.222502,-4.624925 3.390127,-8.974903 5.768641,-13.098942 0.01159,-0.01475 -0.196662,-0.17908 -0.208256,-0.164331 -2.666521,3.978621 -4.947261,8.359885 -6.133476,13.027629 -0.254299,1.000668 -0.348677,2.035386 -0.522966,3.053044 0.08422,0.726617 -0.01222,1.4978886 0.252698,2.1797106 0.506772,1.304258 1.67166,1.595883 2.942973,1.397848 2.697739,-0.420234 6.039841,-3.3717976 8.062557,-4.9738566 1.063361,-0.942394 2.09967,-1.918262 3.093868,-2.933671 1.047039,0.382387 2.390464,-0.111528 3.260783,-0.472839 1.59038,-0.660238 3.387459,-1.86298 4.903579,-3.044259 l 0.63872,-1.368392 0.0026,-0.01447 c -1.601445,1.393975 -3.845033,3.074501 -5.715928,3.953247 -0.352421,0.165531 -1.807997,0.822786 -2.807581,0.656291 1.675335,-1.739323 3.220869,-3.599311 4.542875,-5.631181 0.643,-0.988264 1.986922,-3.320614 2.194182,-4.691703 0.0625,-0.413432 -0.14058,-0.824433 -0.21084,-1.236617 -0.36116,-0.156234 -0.692065,-0.507381 -1.083655,-0.468706 z m 0.140043,0.330729 c 0.189366,0.01515 0.383775,0.110422 0.574125,0.141594 0.0529,0.347587 0.228027,0.698156 0.158647,1.04283 -0.25769,1.28023 -1.668652,3.597301 -2.270662,4.49585 -1.377713,2.056333 -2.977026,3.937028 -4.689637,5.712313 -0.03522,-0.0355 -0.07211,-0.06889 -0.102319,-0.111105 -0.35545,-0.496769 -0.217258,-1.201922 -0.326078,-1.80299 0.13463,-0.790995 0.156253,-1.609684 0.403593,-2.372982 0.80664,-2.48936 2.497565,-4.786868 4.613155,-6.31486 0.44457,-0.321094 0.925897,-0.619716 1.452107,-0.774113 0.0617,-0.0181 0.123947,-0.02159 0.187069,-0.01654 z" />
    <path
       style="fill:#000000;fill-opacity:1;stroke:#000000;stroke-width:0.6;stroke-linecap:square;stroke-dasharray:none;stroke-opacity:1;paint-order:markers stroke fill"
       id="path72"
       d="m 133.8399,-17.46917 c -1.40241,3.130224 -3.13572,6.137029 -5.24327,8.849963 -0.68132,0.8770321 -1.4548,1.6784198 -2.1822,2.5176295 -0.85502,0.6816542 -3.24119,3.3663318 -4.79165,2.4784772 -0.54427,-0.3116715 -0.50449,-1.5357158 -0.45134,-1.9232314 0.0617,-0.4498874 0.25239,-0.8724238 0.37859,-1.3086357 0.49815,-0.941559 1.31166,-2.4395802 2.40738,-2.8374699 1.82228,-0.6617247 4.08419,0.2676507 5.75394,0.7900493 6.50226,2.5231782 12.40406,6.2863453 18.13438,10.2091857 1.73569,1.1744159 0.95818,0.7233228 2.28485,1.4323032 0.006,0.00264 0.0435,-0.085687 0.0373,-0.088323 v 0 C 149.021,1.5779969 149.71718,2.1958587 148.03553,0.84776296 142.3858,-3.289637 136.38716,-7.0308177 129.76943,-9.4189106 c -1.89233,-0.5092877 -4.05062,-1.3282864 -6.02562,-0.5591387 -1.22357,0.47651 -1.98904,1.9191823 -2.55686,2.9879261 -0.30464,1.108933 -0.9625,2.9574341 0.44712,3.7313279 1.75094,0.9612871 4.18613,-1.6080139 5.2269,-2.4464023 0.74085,-0.8529605 1.53547,-1.6620497 2.22256,-2.5588814 2.11002,-2.7541 3.74781,-5.876749 4.99151,-9.106809 0.007,-0.01663 -0.22817,-0.114907 -0.23512,-0.09828 z" />
    <path
       style="fill:#000000;fill-opacity:1;stroke:#000000;stroke-width:0.3;stroke-linecap:square;stroke-dasharray:none;stroke-opacity:1;paint-order:markers stroke fill"
       id="path73"
       d="M 30.223399,15.496437 C 42.114798,9.7146752 53.613557,3.1715776 65.13545,-3.3026588 77.242336,-10.283519 89.297612,-17.358647 101.24942,-24.602547 c 2.69396,-1.632791 5.38934,-3.264285 8.04619,-4.956808 4.6204,-2.9434 3.5175,-1.626304 5.22279,-4.076399 -0.90645,0.193588 -1.84364,0.277045 -2.71936,0.580766 -1.70156,0.590137 -3.3244,1.386636 -4.98223,2.090319 -2.37065,1.00625 -4.7368,2.023087 -7.103134,3.039452 -7.035758,3.021937 -14.052172,6.081384 -21.041445,9.209154 -1.200729,0.574729 -2.401461,1.149459 -3.602193,1.724189 -0.177906,0.242454 -0.826384,0.658248 -0.533712,0.727361 1.638837,0.387005 8.147544,-1.287246 8.46869,-1.356192 11.649512,-2.500984 4.174842,-0.977144 16.952574,-3.473546 8.44582,-1.270351 11.66579,-1.956728 20.23484,-2.428015 7.06685,-0.388667 13.54064,-0.178451 20.5986,-0.07748 0.0734,-0.0076 -0.034,-1.046124 -0.10743,-1.038527 v 0 c -3.3681,-0.132679 -6.7337,-0.370499 -10.10431,-0.398037 -10.39602,-0.08494 -20.76512,0.785175 -30.974025,2.780744 -9.114689,1.934923 -8.369421,1.669967 -16.863806,3.850631 -1.825894,0.46874 -3.640097,0.981892 -5.460148,1.472838 -0.844298,0.295074 -1.667647,0.658833 -2.532895,0.88522 -0.232283,0.06077 0.407008,-0.254827 0.610512,-0.382241 1.237184,-0.499411 2.474368,-0.998823 3.711551,-1.498235 7.077763,-2.937091 14.133185,-5.927215 21.112961,-9.092211 1.79852,-0.815549 9.41018,-4.359113 11.82056,-5.582414 0.7737,-0.392666 1.51273,-0.85022 2.26909,-1.275329 -2.41908,1.664735 -0.53638,0.407974 -5.63162,3.308967 -2.74043,1.560274 -5.48627,3.111121 -8.21846,4.685773 C 88.316392,-18.905119 76.2803,-11.805293 64.244111,-4.7074597 52.89895,2.0172585 41.578545,8.7832268 30.122661,15.318492 c -0.01259,0.0071 0.08815,0.185068 0.100738,0.177945 z" />
  </g>
</svg>
